<?xml version="1.0" encoding="UTF-8"?>
<svg version="1.1" viewBox="0 0 2000 2000" width="1280" height="1280" xmlns="http://www.w3.org/2000/svg">
<path transform="translate(985,460)" d="m0 0h35l45 4 34 5 29 7 36 11 35 13 25 12 26 14 36 21 13 10 11 8 16 13 11 9 10 9 8 7v2l4 2 14 15 11 12 4 5v2h2v2h2v2l5 2 26 1 20 5 12 5 16 9 11 9 6 5 7 8 11 15 9 17 7 25 1 2 8 1 8-3h15l15 5 11 7 8 9 8 16 2 7v59l-2 9-6 11-5 5-8 6-12 5-15 3h-6l3 25 2 34v141l-2 15-6 19-7 11-9 10-8 8-16 11-2 4-1 10-5 17-6 12-9 10-8 7-15 9-11 3h-86l-16-7-8-6-5-5-6-5-7-10-4-10-4-16-1-3h-70l-1 7-7 18-7 11-7 6-5 6-11 7-11 5-13 3-14 1h-66l-7-2-8-1-14-6-9-7-14-13-8-13-9-20v-2l-51 1-5 22-5 10-10 13-9 7-14 7-8 2-10 1h-90l-13-3-11-6-10-9-9-12-7-16-3-9v-3l-17 2-2 5-4 13-6 11-11 12-13 9-12 5-4 1-18 1h-57l-17-3-16-7-14-12-10-12-7-14-5-12h-22l-14-1-15-4-16-8-11-8-7-7-9-13-6-11-4-13-2-15-2-14v-180l1-3 1-30 1-3 1-23 2-6 2-11 5-12 9-17 7-7 7-8 10-9 23-15 8-4 11-4 6-10 13-24 7-10 13-19 7-9 10-14 22-26 7-7 8-10 10-10 11-9 10-10 11-9 13-11 13-10 12-9 10-7 23-13 19-11 16-8 21-10 30-12 17-6 16-5 17-5 17-4 22-4 22-3 27-3z" fill="#1C3539"/>
<path transform="translate(1144,668)" d="m0 0h22l18 3 8 1 9-1 22 4 46 2 26 2 73 4 47 3 14 2 11 4 11 7 8 7v2l4 2 7 8 7 11 4 12v9l-4 8-9 8-7 3-5 1h-29l-72-4-41-2-23-2-36-8-47-7-21-6-16-8-14-8-16-4h-14l-32 6-25 6-10 4-7 5-7 9-7 12-5 13-4 18-2 19-2 49v20l1 22 22-4 31-4h18l-1-14v-92l2-16 3-8 8-10 9-8 10-5 4-1h12l6 3 6 5 4 7v8l-5 3-7 3-3 3 4-2h10l-1 7-4 9 1 50 1 16 4 19 7 19 9 16 10 10 10 5 7 2 8 1h71l193-1 8-4 3-5-1-13-13-76-5-30v-13l17-7 2 5 16 93 6 37 1 14 2 8 1 20v20l-3 3-16 3-9 4-3 2h8l10 2 8 6 6 10 2 7v8l-2 9-1 2v49l-3 21-7 14-7 7-12 7-13 3-8 1-28 1h-218l-10-3-4-6-2-29-3-12-10-20-11-16-13-12-14-9-16-7-8-2h-22l-14 3-12 5-10 6-13 10-9 9-13 24-6 15-5 18-3 21-2 4-22 2-43 2-210 7h-28l-2-2-1-19-3-19-8-16-11-17-7-8-2-1v-2l-5-2-5-4-11-6-14-3h-18l-16 4-13 7-10 8-8 10-8 13-7 15-8 21-2 10-2 2-4 1h-23l-12-3-10-7-8-9-5-12-2-11v-224l3-19 4-13 3-6 1-5h3l2-6 8-11 10-10 12-8 14-5 24-6 53-10 48-10 37-7 75-15 68-14 35-7 37-7 30-5 110-22 58-12z" fill="#F71719"/>
<path transform="translate(984,506)" d="m0 0h34l32 2 30 4 30 6 28 8 32 11 24 9 16 8 13 7 18 11 10 7 19 13 15 11 10 9 9 7 15 13 9 9-1 4h-19l-40-3-88-6-28-2h-16l-34 5-47 9-35 7-28 6-49 10-27 6-31 6-28 6-25 5-34 7-36 7-46 8-16 3-28 6-30 6-27 6-11 2-5-1 1-6 7-10 3-5 11-15 8-12 11-14 12-14 15-16 9-9 11-9 13-11 14-11 12-10 27-18 11-7 26-15 16-8 14-6 36-12 28-9 26-6 34-6 21-2z" fill="#F81819"/>
<path transform="translate(1015,742)" d="m0 0h3l-1 4-9 14-7 15-4 15-3 17-1 14-1 27v60l-48 6-97 13-6 1-2-3-2-13v-32l2-40 3-21 5-16 7-13 9-10 11-8 8-4 16-4 52-10 47-9z" fill="#1A3337"/>
<path transform="translate(1081,1266)" d="m0 0h72l7 3h9l14 5 15 10 9 8 5 10 5 17 1 7v12l-3 14-6 16-7 8-12 9-10 5-3 1 2 4 11 13 8 10 10 12 9 15 1 8-3 5-7 6-10 3h-16l-10-5-10-10-9-13-13-17-12-17-2-3-12-1v43l-2 10-6 7-8 4-3 1h-12l-8-4-6-7-3-8v-83l1-4 1-17 1-2v-13l-3-13v-30l3-9 4-5zm33 44-1 3 1 45 5 2h28l14-7 6-8 1-2 1-12-2-10-9-8-8-3z" fill="#20393D"/>
<path transform="translate(464,1266)" d="m0 0h118l10 5 6 7 2 4v12l-5 10-5 4-10 3h-85v36l76 1 6 5 5 11-1 10-4 6-5 5-7 2-18 1h-52v34l74 1 13 1 11 3 6 7 2 7v8l-3 7-8 7-7 2-8 1h-105l-10-2-8-6-2-3-2-12v-94l1-2v-39l-1-4v-15l3-12 7-8z" fill="#20393D"/>
<path transform="translate(1371,1266)" d="m0 0 9 1 10 5 5 7v171l-3 7-5 5-12 5-8-2-8-7-5-6-5 2-10 7-12 5-13 2-12-1-9-4-16-12-2 1-3 5-8 7-7 2-9-1-9-6-4-8-1-4v-102l6-11 6-5 2-1h13l8 6 7 1 10-13 8-6 11-4h18l13 5 11 8 4 3 1-45 6-9 3-3zm-52 89-9 2-6 3-10 9-4 10-1 6v13l4 13 7 9 10 6h17l14-7 6-7 2-10 1-4v-14l-3-10-7-9-7-6-6-3z" fill="#1D373A"/>
<path transform="translate(678,806)" d="m0 0h5l-2 6-7 10-7 15-4 15-2 17-1 15v52l1 15-1 1-46 5-48 5-27 4-4 1-5-5-2-6-1-7v-19l1-30 2-17 2-10 5-13 7-13 8-10 10-7 16-5 34-6 28-6 27-5z" fill="#1A3337"/>
<path transform="translate(665,1312)" d="m0 0h32l19 5 16 9 11 10 7 11 6 15 2 9 1 12v26l-1 42-3 6-8 7-10 3h-7l-8-4-5-4-6-8-7 6-10 6-10 4-13 2-19-1-16-5-9-5-5-5-6-7-6-12v-27l7-13 12-14 10-5 17-3h52l-4-7-3-3v-2l-5-2-6-2h-22l-23 3h-6l-8-6-4-7-2-6v-7l4-8 6-5 9-4zm26 90-19 2-10 5-6 7 1 5 5 6 6 3h18l11-6 7-8v-11l-4-3z" fill="#1F383C"/>
<path transform="translate(933,1312)" d="m0 0h10l9 5 5 6 14 41 9 23 4 11 1 4 3-3 3-5 3-10 10-25 9-25 7-13 7-6 5-3h6l14 6 6 8 2 9-3 12-12 31-7 25-13 36-9 22-8 19-7 13-9 10-9 8-16 7-16 3-14-1-10-4-5-4-4-6-1-6v-9l3-8 5-4 6-3 20-1 5-4 3-7v-7l-5-15-12-29-6-17-6-14-4-10-8-18-4-11-1-16 3-5 7-6z" fill="#1E373B"/>
<path transform="translate(823,779)" d="m0 0h5l-1 5-6 8-8 17-4 13-3 22-1 13v74l-1 1-24 3-78 11h-6l-3-3v-67l2-22 4-16 4-10 9-16 10-11 6-4 16-4 58-10 15-3z" fill="#1A3337"/>
<path transform="translate(1465,1312)" d="m0 0h29l18 5 11 6 9 7 7 8 8 16 5 15 1 4v15l-4 9-6 7-7 2-79 1 2 6 3 6 11 7 7 3h16l5-3 4-1h6l7-3h17l5 3 5 8 1 3v7l-4 9-6 5-22 8-15 3-9 1h-11l-15-2-12-5-10-4-8-6-10-9-7-10-7-14-4-12v-30l3-7 3-10 5-10 10-13 8-8 11-8 14-7zm12 40-10 4-6 5-4 8 1 4 6 2h31l8-2 1-1-1-7-8-9-12-4z" fill="#20393D"/>
<path transform="translate(500,826)" d="m0 0h2l-1 6-4 9-2 6-3 22v227l3 12 6 8 6 2 5-1 31-2 13-1 1-6 10-21 8-13 13-15 10-8 12-7 12-4 8-1h14l11 2 16 8 9 7 11 11 13 20 12 21 2 9 5 5v2l5 1h42l26-1 34-1 30-2 51-2 21-2 34-1 22-2h15l14-1 2-11 5-16 6-15 9-17 4-7 4-2v-2l9-7h2l1-3 11-7 10-6 10-4 16-3 10-1 11 1 15 5 19 11 13 12 6 5 7 11 12 20 2 4 4 2 4 7 3 7 6 11 16 3h115l97-1h9l25-3 3-2 6-2 11-4h2v-2l5-4 3-16v-36l-2-4 4-5 1 4v43l-3 21-7 14-7 7-12 7-13 3-8 1-28 1h-218l-10-3-4-6-2-29-3-12-10-20-11-16-13-12-14-9-16-7-8-2h-22l-14 3-12 5-10 6-13 10-9 9-13 24-6 15-5 18-3 21-2 4-22 2-43 2-210 7h-28l-2-2-1-19-3-19-8-16-11-17-7-8-2-1v-2l-5-2-5-4-11-6-14-3h-18l-16 4-13 7-10 8-8 10-8 13-7 15-8 21-2 10-2 2-4 1h-23l-12-3-10-7-8-9-5-12-2-11v-224l3-19 4-13 3-6z" fill="#C5141B"/>
<path transform="translate(829,1312)" d="m0 0h27l9 3 11 1 14 7 5 8 1 3v7l-4 8-5 5-10 4h-9l-20-2h-10l-7 2 1 4 4 4 14 4 13 2 16 4 13 7 8 8 5 8 3 9 1 12-2 11-7 14-7 8-10 6-18 7-14 2h-28l-14-2-10-2-11-4-6-5-3-6-2-10 6-11 6-5 5-2 17 1 18 3h23l3-1 2-3-1-5-8-4-32-8-15-5-8-6-6-7-7-14-1-4v-9l4-13 7-13 7-8 13-8z" fill="#1F383C"/>
<path transform="translate(1107,1057)" d="m0 0h12l11 4 9 6 9 8 9 13 6 13 4 15 1 6v18l-3 17-5 13-7 11-10 11-11 7-10 4-5 1h-8l-14-4-13-8-9-9-7-11-5-12-3-12-1-7v-17l4-20 5-12 6-10 9-10 8-7 14-7z" fill="#FEFDFE"/>
<path transform="translate(1150,772)" d="m0 0h10l-1 7-4 9 1 50 1 16 4 19 7 19 9 16 10 10 10 5 7 2 8 1h71l193-1 8-4 3-5-1-13-13-76-5-30v-13l17-7 2 5 16 93 6 37v13l-1 3h-2l-2 6-5 4-12 5-62 1h-73l-151-1-15-4-13-7-10-10-9-14-6-12-7-19-4-18-1-14v-56l5-9 5-6z" fill="#FEFDFE"/>
<path transform="translate(1144,668)" d="m0 0h22l18 3 12 4 9 6 3 5v5h-8l-24-6-6-1h-31l-29 5-90 18-39 6-198 40-40 8-28 6-105 21-39 6-22 5-14 5-13 7-12 11-8 9-1-2 7-14 11-12 8-7 8-5 14-5 24-6 53-10 48-10 37-7 75-15 68-14 35-7 37-7 30-5 110-22 58-12z" fill="#FEFDFE"/>
<path transform="translate(629,1084)" d="m0 0h15l9 4 9 7 8 11 5 10 4 14v25l-3 12-7 14-11 12-8 5-9 3h-11l-10-4-9-7-7-8-7-14-4-15v-20l5-17 5-10 7-9 10-9z" fill="#FEFDFE"/>
<path transform="translate(1108,1081)" d="m0 0h9l10 4 8 7 7 11 4 10 2 9v21l-4 13-8 13-9 8-11 4h-9l-9-3-6-4-7-6-6-10-4-10-1-6v-20l4-14 6-11 10-10 10-5z" fill="#1A3337"/>
<path transform="translate(1240,777)" d="m0 0h18l8 4 6 4 4 6 2 10v52l-2 12-4 8-9 8-12 5h-10l-12-5-7-8-3-14v-58l2-11 5-5 6-5z" fill="#F81819"/>
<path transform="translate(1459,708)" d="m0 0 4 2 7 8 7 11 4 12v9l-4 8-9 8-7 3-5 1h-29l-72-4-41-2-23-2-36-8-47-7-21-6-16-8-14-8-16-4h-14l-32 6-9 1 4-2 29-6 7-1h17l15 4 16 8 10 4 33 4 4 1 25 2h11l9 1 17 1 12 1h13l30 2 6-1h16l11-1 8-1 16 2 6 1 12 1v2l17 1h30l10-2 4-2 2 1v-2h2l-1-10-7-14-9-11z" fill="#C5141B"/>
<path transform="translate(1225,676)" d="m0 0h26l64 4 88 5 21 2 12 3 11 6 10 9v2l-24-3-179-10-10-3-10-7-9-6z" fill="#FEFDFE"/>
<path transform="translate(631,1104)" d="m0 0 10 1 9 6 6 9 4 10 1 5v15l-3 12-6 10-7 6-4 2h-13l-5-3-8-8-4-8-2-6-1-7v-10l2-10 6-12 8-9z" fill="#1A3337"/>
<path transform="translate(984,506)" d="m0 0h34l32 2 30 4 30 6 28 8 32 11 24 9 16 8 13 7 18 11 10 7 19 13 15 11 10 9 9 7 15 13 9 9-1 4h-19l-40-3-88-6-28-2h-16l-34 5-47 9-35 7-28 6-49 10-27 6-31 6-28 6-25 5-34 7-36 7-46 8-16 3-28 6-30 6-27 6-11 2-5-1 1-6 7-10 3-5 11-15 8-12 11-14 12-14 15-16 9-9 11-9 13-11 14-11 12-10 27-18 11-7 26-15 16-8 14-6 36-12 28-9 26-6 34-6 21-2zm-14 3-22 2-28 4-32 7-26 8-36 12-23 9-20 11-22 13-30 20-11 8v2l-4 2-14 12-6 4v2l-4 2-14 11-25 25-9 11-8 9-12 17-10 15-8 11-2 9h10l24-5 17-4 17-3 28-6 20-4 36-6 22-4 115-23 28-6 31-6 22-5 64-13 45-9 21-4 25-4h34l59 4 26 1 21 2 16 1h34v-2l4 1-5-7-11-9-8-7h-2l-1-3-10-8-17-13-33-22-17-10-14-8-20-9-38-13-23-7-21-5-9-2-23-4-25-3-16-1z" fill="#C5141B"/>
<path transform="translate(1336,977)" d="m0 0h113l7 1-1 4-12 10-9 5h-102l-14-5-10-6-3-5 1-3z" fill="#1A3337"/>
<path transform="translate(1536,781)" d="m0 0h12l8 3 4 5 3 10v45l-4 8-8 4h-13l-4-4-4-26-5-31v-10l5-3z" fill="#F81819"/>
<path transform="translate(982,908)" d="m0 0h10l2 1v9l-3 5-11 3-120 15-6-1-8-7-4-2 1-4 18-3 91-12z" fill="#FEFDFE"/>
<path transform="translate(1486,986)" d="m0 0 11 1 6 3 5 4 6 10 2 7v8l-2 9-6 10-11 4h-14l-8-4-7-8-4-11v-14l4-8 7-7 5-3z" fill="#FEFDFE"/>
<path transform="translate(1269,986)" d="m0 0 11 2 8 5 7 12 1 4v9l-4 12-5 7-7 4-4 1h-13l-9-4v-2l-3-1-6-12-1-5v-11l3-8 6-7 7-4z" fill="#FEFDFE"/>
<path transform="translate(1313,1044)" d="m0 0h140l1 1v5l-8 9-2 1h-73l-42-1-13-2-5-2-2-3 1-6z" fill="#20222B"/>
<path transform="translate(649,952)" d="m0 0h12l1 1-1 8-3 3-17 4-60 8-23 3h-14l-8-8 1-5 10-2 27-4 68-7z" fill="#FEFDFE"/>
<path transform="translate(1339,996)" d="m0 0h90l2 1-1 5-11 13-2 1-11 1h-56l-5-2-7-8-2-4v-5z" fill="#FEFDFE"/>
<path transform="translate(1133,742)" d="m0 0h12l6 3 6 5 4 7v8l-5 3-7 3-3 2-5 9-4 7-1 5h-1v-8l3-12v-8l-6-1-4 2-7-1-2-3h2l2-4h2l1-4 5-2v-2l8-4 9 1v-2l-9-1-13 2-10 7-6 8-2 6-1 12-2 8-1 12-1 32v22l1 4v28h-2l-1 21-2 1-2-26v-92l2-16 3-8 8-10 9-8 10-5z" fill="#C5141A"/>
<path transform="translate(793,932)" d="m0 0h13l1 1-1 12-3 2-24 4-38 5-20 2h-15l-8-8 1-4 10-2 55-8z" fill="#FEFDFE"/>
<path transform="translate(1352,712)" d="m0 0h22l27 1 13 1 5 4v8l-2 7-5 2h-26l-26-2-8-2-5-3-1-3v-8l4-4z" fill="#1F222B"/>
<path transform="translate(1240,777)" d="m0 0h18l8 4 6 4 4 6 2 10v52l-2 12-4 8-9 8-12 5h-10l-12-5-7-8-3-14v-58l2-11 5-5 6-5zm-1 2-8 3-9 9-1 3v67l2 4h17l14-2 9-4 7-5 4-1 1-3 1-12v-39l-2-9-7-6-10-5z" fill="#C5141A"/>
<path transform="translate(987,503)" d="m0 0h30l17 1 9 2 27 3 5 1v1l-16-1-22-2-19-1h-34l-29 2-24 3-35 7-18 5-60 20-25 11-24 14-10 6-24 16-14 10-9 8-9 7-11 9-13 11-10 9-10 10-7 8-2 1 2-5h2l1-4 4-5 7-6 4-6h2v-2h2v-2l4-2 1-2h3v-2h2v-2l5-3 3-1v-2l11-8 4-2v-2l9-6 8-8h2v-2l9-7 15-10 22-14 17-8 15-8 4-3 21-7 11-4 4-1 15-4 5-2 8-2 3-2 9-1 7-3 10-2 5-2 15-1 6-2 21-2 13-3z" fill="#20222B"/>
<path transform="translate(1252,1266)" d="m0 0 5 1 12 4 5 4 3 7v9l-6 9-6 5-4 2h-14l-7-4-6-11-1-9 3-7 7-6 8-3z" fill="#243D41"/>
<path transform="translate(1216,977)" d="m0 0h27l16 1 14 3 7 5v2l-11-1-11 3-8 6-1 1h-25l-21-2-4-2-2-3 1-5 8-7z" fill="#20222B"/>
<path transform="translate(1377,1059)" d="m0 0h54l10 1 3 2-1 11-3 3-42 1h-20l-5-2-2-5v-8z" fill="#FEFDFE"/>
<path transform="translate(1080,896)" d="m0 0h18l1 1v12l-3 2-21 3-25 3h-10l-6-3-6-6v-4l21-4z" fill="#FEFDFE"/>
<path transform="translate(1069,1029)" d="m0 0h2v2l-11 8-12 12-6 10-11 25-2 6-2 8-3 14-3 15-5 5-34 3-44 1-39 2-13 1-61 1-23 1-41 1-22 1h-26l-2-3-2-16-1-9v-8l-3-10-3-3-3-7 1-3 8 14 3 14 1 8 1 19 1 1h28l177-6 60-2 30-2 8-1 2-12 4-20 6-18 8-17 9-15 11-11z" fill="#20222B"/>
<path transform="translate(678,804)" d="m0 0h8l-1 5-7 10-9 19-4 18-2 14-1 24v44l1 15-3-1-1-16v-52l2-26 4-18 7-16 7-11 4-7-16 3-31 6-29 6-33 6-12 4-11 8-9 13-7 15-3 9-2 12-1 12-1 30v19l2 10 3 6 3 2v3l-4-2-4-5-3-10v-36l1-22 2-17 5-16 6-12 7-9 4-5 9-7 14-5 55-10 8-2 20-4 16-3z" fill="#C5141B"/>
<path transform="translate(1512,1030)" d="m0 0 3 2 1 19v12l-1 15v13l-3 11-5 10-10 10-9 6-14 4-6 1-49 2-124 1h-47l-26-1-10-1-8-5-3-5-1-20-2-17-7-14-4-9-2-2-1-5 3 3 12 23 3 12 2 29 3 5 10 3h218l28-1 17-3 8-3 10-7 6-7 5-11 3-21z" fill="#20222B"/>
<path transform="translate(1380,701)" d="m0 0h18l20 1v1h-24l1 4 15 1 9 7 2 4v8l-3 9-2 1h-48l-14-2-6-3-4-4-1-4v-7l4-6 3-2 14-2 3-1 1-2h7l6-1zm-28 11-5 3-1 2v8l2 4 6 3 17 2 15 1h26l5-2 2-7v-8l-5-4-13-1-27-1z" fill="#C5141A"/>
<path transform="translate(1311,1041)" d="m0 0h142l4 3-3 9-4 5h-2l-2 5-5-2 3-2 5-4 4-5v-5h-140l-2 1-1 6 2 3 7 2 10 1 42 1 3 2-2 1h-51l-10-3-4-5-1-6 2-5z" fill="#C5141B"/>
<path transform="translate(678,806)" d="m0 0h5l-2 6-7 10-7 15-4 15-2 17-1 15v52l1 15h-2l-2-25v-33l2-29 3-23 1-8v-7l3-9 3-1-1-3-1-1h-9l-16 3-13 3-32 6-28 6-12 6-7 7-10 15-1-2 7-12 7-8 11-7 14-4 34-6 28-6 27-5z" fill="#20222B"/>
<path transform="translate(1360,714)" d="m0 0h9l6 2 11 1 10 2h11l5 2-1 6-2 2h-6l-4-2-3 2-2-1h-12l-5-1h-3-8l-14-4v-5l4-1 1-2z" fill="#1A3337"/>
<path transform="translate(1138,526)" d="m0 0 10 1 4 2 7 1 5 3 7 2 3 1v2l9 2 18 6 11 7 14 7v2h5l3 2v2l6 1 5 3 3 2v2l6 2 10 7 16 11 5 5 1 3h2v2h2l10 10 9 5 6 9-4-2-10-9-9-7-12-10-20-14-21-14-13-8-14-8-16-8-15-6-37-13-6-2z" fill="#20222B"/>
<path transform="translate(1336,977)" d="m0 0h113l7 1-1 4-12 10-2-2 4-4-1-4-3-3-36 1-14-1h-23l-3 1h-16l-16 1h-12l-6 1-2 4v-4l-2 1 1 3 5 2 10 5 9 3-4 1-14-5-10-6-3-5 1-3z" fill="#1F222B"/>
<path transform="translate(627,1043)" d="m0 0h18l16 4 12 7 7 5v2l4 2 9 11 6 10-1 2-11-16-5-5-5-3-4-5-12-6-10-4-5-1h-23l-13 4-11 6-3 1v2l-5 4-7 8-6 8-8 16-5 12-7 21-3 7-2 1-21 1-15-3 4-1 5 1h23l5-2 3-13 10-25 9-17 8-10 6-7 13-9 11-5z" fill="#20222B"/>
<path transform="translate(1235,775)" d="m0 0h20l11 3v2l4 2 6 5 5 10-1 9h2v42l-2 14-4 8-5 6-2-1 5-7 2-6 1-11v-50l-2-10-3-4v-2l-5-2-4-3-5-2h-18l-10 4-4 4h-2l-2 4-2 13-1 22h-1v-28l3-9 6-7 5-3z" fill="#20222B"/>
<path transform="translate(1206,975)" d="m0 0h37l23 2 9 3 8 5 4 5v2l-5-2-2-1-1-3-9-5-11-2-16-1h-27l-10 1-8 7 1 7 10 2 39 2-3 10v11l1 7h-2l-2-5v-15l2-4-21-1-23-3-5-4v-8l3-5 5-4z" fill="#C5141B"/>
<path transform="translate(1536,781)" d="m0 0h12l8 3 4 5 3 10v45l-4 8-8 4h-13l-4-4-4-26-5-31v-10l5-3zm3 2-11 2-1 1 1 18 3 16 4 31 5 3h8l6-2v-2h2l4-8 1-11v-26l-2-12-3-6-8-4z" fill="#C5141B"/>
<path transform="translate(1381,975)" d="m0 0h74l5 3-2 4-7 6-11 9-6 3h-3v-3l12-6 12-10 1-3h-120l-30 1 2 7 5 2 12 6 12 3-2 4-15-6-8-4-6-4-5-10 2-1z" fill="#C5141B"/>
<path transform="translate(719,801)" d="m0 0 3 1-9 10-9 16-4 10-4 16-2 22v69l5 1-2 3-5-3-2-10v-28l1-49 3-13v-4h2l1-6 4-10 8-13 6-8h2z" fill="#C5141B"/>
<path transform="translate(1051,741)" d="m0 0 2 1-7 9-7 12-5 13-4 18-2 19-2 49v20l2 24h-2l-2-9-1-15 1-63 2-25 3-16 6-13 9-16z" fill="#C5141B"/>
<path transform="translate(744,793)" d="m0 0h7l-4 2-13 3-11 6-7 8-7 10-7 17-4 18-2 41-1 2v38l3 3-1 4 2 1-5-1-1-2v-67l2-22 4-16 4-10 9-16 10-11 6-4z" fill="#20222B"/>
<path transform="translate(1053,741)" d="m0 0h2l-2 4-9 13-7 16-4 17-1 12-1 3-3 58v28l1 12h-2l-2-22v-20l2-49 3-24 5-19 8-16 6-8z" fill="#20222B"/>
<path transform="translate(1211,983)" d="m0 0h7l2 1h7l4 1 12-1 2-1 3 1h3l5 1 2 5-5 2h-15l-7-3-1 2-14 1h-10l-2-1-1-6z" fill="#1A3337"/>
<path transform="translate(1136,633)" d="m0 0h16l133 9 23 2h19l2-3 1 3-1 2h-23l-30-2-24-2-28-1-18-2-44-3h-29l-7 2-1-1-21 3-3 1h-9v-1l35-6z" fill="#20222B"/>
<path transform="translate(868,776)" d="m0 0 1 2-5 5-7 8-7 12-5 17-3 22v19l-3 38v10l1 2 1 16-2-2-2-13v-32l2-40 3-21 5-16 7-13 9-10z" fill="#20222B"/>
<path transform="translate(1268,757)" d="m0 0 9 1 14 3 23 2 76 4 37 2h33l-3 2-15 1-80-3-21-1-1-1-40-2-16-3-16-4z" fill="#20222B"/>
<path transform="translate(1150,736)" d="m0 0 1 2 3-1 4 3 2 4 2 1 5 10-3 4-3 9-2 3-9 2-5 2 1-3 6-4 8-3v-8l-5-8-7-5-3-1h-12l-11 4h-3l1-3 9-3 6-3 13-1z" fill="#1F222B"/>
<path transform="translate(826,782)" d="m0 0v3l-6 9-7 15-4 13-3 22-1 13-1 67h-1v-69l2-23 2-14 1-10 1-9 3-7 1-5v-4l5 1v2l5-1z" fill="#20222B"/>
<path transform="translate(860,781)" d="m0 0 2 1-7 8-8 15-4 14-3 21-2 40v32l2 13 2 5-4-2-2-10-1-12 1-52 3-35 7-19 6-10z" fill="#C5141B"/>
<path transform="translate(1006,762)" d="m0 0 1 3-5 13-4 17-3 21-1 24v69h-2l-1-14v-47l1-27 2-21 4-18 4-11z" fill="#C5141B"/>
<path transform="translate(1015,746)" d="m0 0v3l-8 13-6 13-4 15-3 17-1 14-1 27h-1v-29l2-27h2l-1-7 2-14 4-9h2l1-7v-3l1-3-2-1 5-1-1 8v3l7-10z" fill="#20222B"/>
<path transform="translate(538,858)" d="m0 0 1 4-4 13-4 21-1 36v19l3 7 3 6-1 2-4-2-3-8-1-7v-19l1-30 2-17 2-10 5-13z" fill="#20222B"/>
<path transform="translate(1147,722)" d="m0 0 7 1 16 8 10 6-3 1h-7l-7-2v-3h-2v-3l-9 1-4-1v-2l-3-1v-3h-6v-1z" fill="#20222B"/>
<path transform="translate(1104,1016)" d="m0 0h22l13 4 16 8 7 5-2 1-9-5-6-3-7-2-15-5-2-1h-16l-17 4-14 7-3-1 16-8 11-3z" fill="#20222B"/>
<path transform="translate(1508,925)" d="m0 0 3 3 1 6 1 20v20l-3 3-16 3-9 4-5 2v2l-6 3v-3l3-1 1-3 6-4 15-4 11-1v-35l-1-11-3-1h2z" fill="#C5141B"/>
<path transform="translate(792,701)" d="m0 0h6l-4 2-28 6-12 2-20 3-5 2-16 2-13 3h-8v-1l12-3 80-14z" fill="#20222B"/>
<path transform="translate(1541,780)" d="m0 0h8l8 3 5 5 3 12v9l1 11v16l-2 11-2 4h-2l2-7v-45l-3-10-5-5-6-2-7-1z" fill="#20222B"/>
<path transform="translate(685,721)" d="m0 0h7l-4 2-18 4-2 1-14 2-13 3-38 8-5-1-1-4 2-2 1 4 8-1 31-6 28-6z" fill="#20222B"/>
<path transform="translate(876,684)" d="m0 0h6v1l-22 5-3 2-16 2-10 3-17 2-9 2h-7v-1l40-8z" fill="#20222B"/>
<path transform="translate(1096,790)" d="m0 0h1l1 106-1-2h-5l1-4 2-3h2l-1-2-1-70z" fill="#20222B"/>
<path transform="translate(1260,980)" d="m0 0h10l9 5 1 3-11-1-9 1z" fill="#1A3438"/>
<path transform="translate(1135,796)" d="m0 0h1l1 49 1 16h-2l-1-2-1-10v-33z" fill="#C5141B"/>
<path transform="translate(1512,1030)" d="m0 0 3 2 1 19v12l-1 14-2 1z" fill="#23212A"/>
<path transform="translate(1040,650)" d="m0 0 4 1-26 6-11 3-7 1-9 2-10 2h-8v-1l32-7 31-6z" fill="#1F222B"/>
<path transform="translate(1143,883)" d="m0 0 2 2 5 13 7 14 9 12 7 7h-3l-10-10-8-13-9-20z" fill="#C5141B"/>
<path transform="translate(1424,1052)" d="m0 0 2 1v2h3l1 3h7v1l-16 1h-27v-1l8-1 2-1 19 1-1-3z" fill="#4F2A2F"/>
<path transform="translate(1108,756)" d="m0 0 2 1-8 11-3 10-1 12h-1v-14l2-14 4-5z" fill="#20222B"/>
<path transform="translate(1196,671)" d="m0 0 11 1 16 3 2 2-10-1-4-1h-10l-1 3-10-4 2-2z" fill="#C5141A"/>
<path transform="translate(500,826)" d="m0 0h2l-1 6-4 9-2 6-3 22h-2v-9l4-18 4-10z" fill="#C5141B"/>
<path transform="translate(823,779)" d="m0 0h5v3l-6 5-5-1v-2l-7-2v-1z" fill="#1B2F35"/>
<path transform="translate(1503,977)" d="m0 0h7l-3 2-7 2-10 1-1 3h-3v2h-6l5-4 9-4z" fill="#20222B"/>
<path transform="translate(646,666)" d="m0 0h2l-2 4-11 13-6 8-1-3h2l2-4 6-9 5-7z" fill="#20222B"/>
<path transform="translate(825,777)" d="m0 0h5v4l-2 1v-3l-23 4-9 1 4-2z" fill="#C5141B"/>
<path transform="translate(1270,979)" d="m0 0 5 1 8 5 4 5v2l-5-2-2-1-1-3-9-5z" fill="#C1141B"/>
<path transform="translate(1383,1056)" d="m0 0 17 1 2 2h-29l4-2h5z" fill="#1A3438"/>
<path transform="translate(1466,713)" d="m0 0 4 2 4 4 6 14-1 4-4-10-9-13z" fill="#20222B"/>
<path transform="translate(1509,921)" d="m0 0 3 4 1 3v26h-1l-1-20-2-8z" fill="#2B2129"/>
<path transform="translate(1096,882)" d="m0 0h2v14l-1-2h-5l1-4 2-3h2z" fill="#1F232C"/>
<path transform="translate(1265,980)" d="m0 0 8 1 7 5v2h-3v-2l-7-1v-2h-2v-2z" fill="#1F232B"/>
<path transform="translate(614,710)" d="m0 0v3l-5 6-5 9-2 1 2-5 4-8z" fill="#20222B"/>
<path transform="translate(1437,992)" d="m0 0 4 1-7 4h-5l-1-3 5-1z" fill="#24222A"/>
<path transform="translate(500,826)" d="m0 0h2l-1 6-4 9-2 4-1-3 4-10z" fill="#AF151D"/>
<path transform="translate(1488,981)" d="m0 0h2l-1 4h-3v2h-6l5-4z" fill="#1F242C"/>
<path transform="translate(1018,740)" d="m0 0 3 1-2 5-3 2 2-6-8 1 3-2z" fill="#C5141B"/>
</svg>
